<svg width="110" height="36" viewBox="0 0 110 36" xmlns="http://www.w3.org/2000/svg" fill="#FFF">
<path d="M53.2609 25.3468C53.1657 26.4469 53.4672 27.5447 54.111 28.4418C54.411 28.7817 54.7834 29.05 55.2008 29.2269C55.6182 29.4038 56.0699 29.4848 56.5228 29.464C57.0038 29.4642 57.483 29.4046 57.9493 29.2865C58.3729 29.187 58.7879 29.0538 59.1903 28.8885L60.0228 31.7189C59.4659 31.9506 58.8881 32.1282 58.2972 32.2492C57.5663 32.4138 56.8196 32.4975 56.0704 32.4988C55.2234 32.5007 54.3816 32.3666 53.5771 32.1016C52.8215 31.8467 52.134 31.4231 51.5666 30.8628C50.9737 30.2718 50.5221 29.5545 50.2455 28.7643C49.9062 27.7698 49.7493 26.7222 49.7824 25.6719L49.9312 3.37014L53.4073 3.39332L53.2609 25.3468Z"/>
<path d="M69.0013 32.5848C67.7971 32.5828 66.6071 32.3243 65.5107 31.8263C64.4237 31.3337 63.4544 30.6149 62.6676 29.7177C61.8232 28.7602 61.1734 27.6474 60.7546 26.4414C60.2818 25.0538 60.0558 23.5942 60.0868 22.1286C60.0836 20.685 60.3355 19.2521 60.8309 17.8962C61.276 16.6715 61.939 15.5375 62.7881 14.549C63.5809 13.6293 64.5511 12.879 65.6406 12.3429C66.7179 11.807 67.9062 11.5321 69.1094 11.5405C70.314 11.5169 71.5045 11.8024 72.5673 12.3697C73.3944 12.8161 74.1513 13.3818 74.8135 14.0487L74.8836 3.53633L78.3662 3.55955L78.208 27.293C78.2015 28.2669 78.4358 28.907 78.9045 29.2326C79.3718 29.5303 79.9145 29.6883 80.4687 29.688L79.7154 32.3918C77.269 32.3755 75.7707 31.3852 75.2205 29.4208C74.5674 30.2863 73.7626 31.0261 72.8454 31.6043C71.6884 32.3021 70.3512 32.6432 69.0013 32.5848ZM69.7959 29.4943C70.747 29.5018 71.6854 29.2755 72.5285 28.8353C73.3698 28.4107 74.1156 27.8187 74.72 27.0956L74.7867 17.1056C74.2211 16.4148 73.5398 15.8276 72.7731 15.3702C71.9548 14.8855 71.03 14.6093 70.08 14.5658C69.13 14.5224 68.1839 14.713 67.3248 15.121C66.5723 15.502 65.9092 16.0383 65.3794 16.6946C64.814 17.3956 64.3883 18.1984 64.1253 19.0597C63.8287 20.0175 63.6786 21.0145 63.6799 22.0171C63.6624 23.027 63.8126 24.0327 64.1245 24.9934C64.3993 25.849 64.8315 26.6459 65.3987 27.3431C65.9389 27.9911 66.6073 28.5204 67.3619 28.8976C68.1217 29.2775 68.9595 29.4752 69.8089 29.475"/>
<path d="M95.8594 15.8529C95.1946 15.5172 94.4987 15.2468 93.7815 15.0458C93.0739 14.8657 92.3463 14.7764 91.6162 14.7798C90.748 14.7668 89.8864 14.9323 89.0847 15.266C88.3065 15.5885 87.6094 16.0794 87.0435 16.7035C86.4465 17.369 85.9875 18.1464 85.6932 18.9906C85.3491 19.9849 85.1785 21.0309 85.1889 22.083C85.1735 23.0786 85.3171 24.0702 85.6143 25.0204C85.8931 25.8862 86.3246 26.6951 86.8883 27.4088C87.4083 28.0764 88.0642 28.626 88.8124 29.0212C89.5865 29.4206 90.4463 29.6256 91.3173 29.6183C92.1661 29.6409 93.0137 29.5423 93.8346 29.3256C94.6144 29.0884 95.3667 28.7692 96.079 28.3731L97.1429 31.3212C96.2821 31.7661 95.3731 32.1106 94.4336 32.348C93.33 32.6074 92.1981 32.7277 91.0646 32.706C89.7243 32.719 88.3964 32.4486 87.1679 31.9125C86.0343 31.4074 85.0246 30.6612 84.2092 29.7257C83.3592 28.7504 82.7093 27.6175 82.2965 26.3914C81.8411 25.0179 81.6217 23.5772 81.6477 22.1304C81.6483 20.743 81.8866 19.3659 82.3521 18.0589C82.7803 16.8322 83.4453 15.7016 84.3092 14.7311C85.1697 13.7762 86.2205 13.0121 87.3941 12.4878C88.667 11.9289 90.0471 11.6562 91.4369 11.6893C92.4514 11.6818 93.4633 11.7902 94.4532 12.0125C95.3042 12.2269 96.1302 12.5307 96.9173 12.919L95.8594 15.8529Z"/>
<path d="M109.719 30.5155L99.8575 30.4497L99.8421 32.7715L109.703 32.8372L109.719 30.5155Z"/>
<path d="M32.6011 12.0777C32.5911 13.629 32.2732 15.1629 31.6658 16.5904C31.0584 18.0178 30.1737 19.3105 29.0628 20.3934L24.9986 24.4038C24.5105 24.8855 23.851 25.1535 23.1652 25.1489C22.4794 25.1443 21.8236 24.8675 21.3419 24.3794C20.8602 23.8912 20.5922 23.2317 20.5967 22.546C20.6013 21.8602 20.8781 21.2043 21.3663 20.7226L25.4305 16.7123C26.5656 15.4591 27.1784 13.8192 27.1435 12.1287C27.1085 10.4382 26.4284 8.82513 25.2424 7.61993C24.0565 6.41473 22.4545 5.70872 20.7648 5.64656C19.0751 5.5844 17.4256 6.17079 16.1543 7.28559L6.63 16.6901C3.6692 19.6565 -1.365 17.2817 0.543571 15.4241L12.5219 3.60445C14.1826 1.96655 16.2915 0.857741 18.5822 0.418171C20.8729 -0.0213992 23.2425 0.228003 25.3915 1.13485C27.5404 2.0417 29.3723 3.56529 30.6556 5.51303C31.9388 7.46078 32.6159 9.74525 32.6011 12.0777Z"/>
<path d="M10.1522 23.3504C10.1588 21.8009 10.4726 20.2681 11.0755 18.8406C11.6784 17.4132 12.5585 16.1195 13.6646 15.0345L17.7288 11.0241C18.217 10.5424 18.8765 10.2744 19.5623 10.279C20.248 10.2835 20.9039 10.5603 21.3856 11.0485C21.8673 11.5366 22.1353 12.1962 22.1307 12.8819C22.1262 13.5677 21.8494 14.2236 21.3612 14.7053L17.2971 18.6963C16.0454 19.9298 15.3348 21.61 15.3219 23.3674C15.309 25.1248 15.9947 26.8153 17.2282 28.0671C18.4617 29.3189 20.142 30.0294 21.8993 30.0423C23.6567 30.0552 25.3472 29.3695 26.599 28.136L36.1233 18.738C39.0841 15.7651 44.1183 18.1463 42.2097 19.9975L30.2314 31.8172C28.5711 33.4547 26.4628 34.5634 24.1727 35.0031C21.8826 35.4429 19.5135 35.1941 17.3648 34.288C15.2161 33.382 13.3841 31.8594 12.1004 29.9126C10.8166 27.9659 10.1387 25.6823 10.1522 23.3504Z"/>
</svg>
